<?xml version="1.0" encoding="UTF-8"?>
<svg width="512px" height="512px" viewBox="0 0 512 512" version="1.1" xmlns="http://www.w3.org/2000/svg" xmlns:xlink="http://www.w3.org/1999/xlink">
    <title>Worklog</title>
    <defs>
        <linearGradient x1="50%" y1="0%" x2="50%" y2="100%" id="linearGradient-1">
            <stop stop-color="#1D1D1D" offset="0%"></stop>
            <stop stop-color="#000000" offset="100%"></stop>
        </linearGradient>
        <path d="M167.938719,50 L344.061281,50 C385.071143,50 399.94231,54.2699781 414.934902,62.2881044 C429.927495,70.3062306 441.693769,82.072505 449.711896,97.0650976 C457.730022,112.05769 462,126.928857 462,167.938719 L462,344.061281 C462,385.071143 457.730022,399.94231 449.711896,414.934902 C441.693769,429.927495 429.927495,441.693769 414.934902,449.711896 C399.94231,457.730022 385.071143,462 344.061281,462 L167.938719,462 C126.928857,462 112.05769,457.730022 97.0650976,449.711896 C82.072505,441.693769 70.3062306,429.927495 62.2881044,414.934902 C54.2699781,399.94231 50,385.071143 50,344.061281 L50,167.938719 C50,126.928857 54.2699781,112.05769 62.2881044,97.0650976 C70.3062306,82.072505 82.072505,70.3062306 97.0650976,62.2881044 C112.05769,54.2699781 126.928857,50 167.938719,50 Z" id="path-2"></path>
        <filter x="-4.2%" y="-3.0%" width="108.5%" height="108.5%" filterUnits="objectBoundingBox" id="filter-3">
            <feOffset dx="0" dy="5" in="SourceAlpha" result="shadowOffsetOuter1"></feOffset>
            <feGaussianBlur stdDeviation="5" in="shadowOffsetOuter1" result="shadowBlurOuter1"></feGaussianBlur>
            <feColorMatrix values="0 0 0 0 0   0 0 0 0 0   0 0 0 0 0  0 0 0 0.252577988 0" type="matrix" in="shadowBlurOuter1"></feColorMatrix>
        </filter>
        <path d="M147.812331,161.240106 L117.690644,48.7559367 L87.187669,161.240106 C84.8152036,169.771371 82.9299691,175.892462 81.5319091,179.603562 C80.1338491,183.314662 77.6978721,186.641806 74.2239048,189.585092 C70.7499376,192.528379 66.1321723,194 60.3704705,194 C55.7102706,194 51.8762544,193.125558 48.8683072,191.376649 C45.8603599,189.62774 43.4243829,187.15371 41.5603029,183.954485 C39.6962229,180.755261 38.1710894,176.958905 36.9848567,172.565303 C35.798624,168.171702 34.7395035,164.098084 33.8074635,160.344327 L2.796106,34.0395778 C0.932026014,26.7026898 0,21.1147949 0,17.2757256 C0,12.4129044 1.69459275,8.31795859 5.0838291,4.99076517 C8.47306544,1.66357175 12.6671825,0 17.6663061,0 C24.5295097,0 29.147275,2.21809567 31.5197404,6.65435356 C33.8922058,11.0906115 35.968082,17.53162 37.747431,25.9775726 L62.1498107,135.51847 L89.4753921,33.0158311 C91.5089339,25.1670672 93.3306211,19.1952711 94.9405084,15.1002639 C96.5503956,11.0052566 99.1770144,7.46483463 102.820443,4.47889182 C106.463873,1.49294901 111.420556,0 117.690644,0 C124.045462,0 128.980963,1.55693254 132.497296,4.67084433 C136.013629,7.78475611 138.449606,11.1758832 139.8053,14.8443272 C141.160995,18.5127712 142.982682,24.5698786 145.270416,33.0158311 L172.850189,135.51847 L197.252569,25.9775726 C198.438802,20.2616249 199.561469,15.7827779 200.620606,12.5408971 C201.679742,9.29901633 203.501429,6.39842968 206.085722,3.83905013 C208.670015,1.27967058 212.419301,0 217.333694,0 C222.248087,0 226.421021,1.64224391 229.852623,4.926781 C233.284225,8.21131809 235,12.3275918 235,17.2757256 C235,20.7735443 234.067974,26.3614392 232.203894,34.0395778 L201.192537,160.344327 C199.074264,168.875592 197.316124,175.12465 195.918064,179.091689 C194.520004,183.058727 192.147574,186.535165 188.800703,189.521108 C185.453832,192.507051 180.730155,194 174.629529,194 C168.867828,194 164.250062,192.549707 160.776095,189.649077 C157.302128,186.748446 154.887333,183.485286 153.531639,179.859499 C152.175944,176.233711 150.269527,170.027309 147.812331,161.240106 Z" id="path-4"></path>
        <path d="M117.690644,48.7559367 L87.187669,161.240106 C84.8152036,169.771371 82.9299691,175.892462 81.5319091,179.603562 C80.146312,183.28158 77.7412201,186.582456 74.3165624,189.506301 L62.1498107,135.51847 L89.4753921,33.0158311 C91.5089339,25.1670672 93.3306211,19.1952711 94.9405084,15.1002639 C96.5503956,11.0052566 99.1770144,7.46483463 102.820443,4.47889182 C103.553183,3.87838093 104.339039,3.33825611 105.178013,2.858517 L117.690644,48.7559367 Z" id="path-6"></path>
        <path d="M172.850189,135.51847 L197.252569,25.9775726 C198.438802,20.2616249 199.561469,15.7827779 200.620606,12.5408971 C201.679742,9.29901633 203.501429,6.39842968 206.085722,3.83905013 C208.670015,1.27967058 212.419301,0 217.333694,0 C222.248087,0 226.421021,1.64224391 229.852623,4.926781 C233.284225,8.21131809 235,12.3275918 235,17.2757256 C235,20.7735443 234.067974,26.3614392 232.203894,34.0395778 L201.192537,160.344327 C199.074264,168.875592 197.316124,175.12465 195.918064,179.091689 C194.520004,183.058727 192.147574,186.535165 188.800703,189.521108 C188.38794,189.889359 187.954236,190.234901 187.49959,190.557736 L172.850189,135.51847 Z" id="path-8"></path>
    </defs>
    <g id="Worklog" stroke="none" stroke-width="1" fill="none" fill-rule="evenodd">
        <g id="base">
            <use fill="black" fill-opacity="1" filter="url(#filter-3)" xlink:href="#path-2"></use>
            <use fill="url(#linearGradient-1)" fill-rule="evenodd" xlink:href="#path-2"></use>
        </g>
        <g id="W" transform="translate(139.000000, 159.000000)">
            <mask id="mask-5" fill="white">
                <use xlink:href="#path-4"></use>
            </mask>
            <use id="Mask" fill="#FFFFFF" fill-rule="nonzero" xlink:href="#path-4"></use>
            <mask id="mask-7" fill="white">
                <use xlink:href="#path-6"></use>
            </mask>
            <use id="Mask" fill="#B9B9B9" fill-rule="nonzero" xlink:href="#path-6"></use>
            <mask id="mask-9" fill="white">
                <use xlink:href="#path-8"></use>
            </mask>
            <use id="Mask" fill="#B9B9B9" fill-rule="nonzero" xlink:href="#path-8"></use>
        </g>
    </g>
</svg>
